<mxfile host="app.diagrams.net" modified="2024-04-16T17:03:49.114Z" agent="Mozilla/5.0 (X11; Ubuntu; Linux x86_64; rv:123.0) Gecko/20100101 Firefox/123.0" version="24.2.5" etag="MarEjwWLbzeEhy-MMrbu" type="github">
  <diagram name="PÃ¡gina-1" id="Jf_aFxK4iD-YuMuAuGiu">
    <mxGraphModel>
      <root>
        <mxCell id="0" />
        <mxCell id="1" parent="0" />
      </root>
    </mxGraphModel>
  </diagram>
</mxfile>
